<svg xmlns="http://www.w3.org/2000/svg" xmlns:xlink="http://www.w3.org/1999/xlink" version="1.1" x="0px" y="0px" viewBox="0 0 307.1 459.1" enable-background="new 0 0 307.1 459.1" xml:space="preserve"><path fill="#FFFFFF" d="M2.5 381.7c-2.7 0-3.3 1.6-1.4 3.5l70.5 70.5c1.9 1.9 5.7 3.5 8.3 3.5h67.6c2.7 0 4.9-2.2 4.9-4.9v-145 c0-2.7 2.2-4.9 4.9-4.9h145c2.7 0 4.9-2.2 4.9-4.9v-67.6c0-2.7-1.6-6.4-3.5-8.3l-70.5-70.5c-1.9-1.9-3.5-1.3-3.5 1.4v67.6 c0 2.7-2.2 4.9-4.9 4.9h-145c-2.7 0-4.9 2.2-4.9 4.9v145c0 2.7-2.2 4.9-4.9 4.9H2.5z"></path><path fill="#FFFFFF" d="M75 147.5c0 2.7 2.2 4.9 4.9 4.9h222.3c2.7 0 4.9-2.2 4.9-4.9V79.9c0-2.7-1.6-6.4-3.5-8.3L233.2 1.1 c-1.9-1.9-3.5-1.3-3.5 1.4v67.6c0 2.7-2.2 4.9-4.9 4.9h-145c-2.7 0-4.9 2.2-4.9 4.9V147.5z"></path></svg>